<?xml version="1.0" standalone="no"?>
<!DOCTYPE svg PUBLIC "-//W3C//DTD SVG 20010904//EN"
 "http://www.w3.org/TR/2001/REC-SVG-20010904/DTD/svg10.dtd">
<svg version="1.0" xmlns="http://www.w3.org/2000/svg"
 width="555.000000pt" height="555.000000pt" viewBox="0 0 555.000000 555.000000"
 preserveAspectRatio="xMidYMid meet">
<metadata>
Created by potrace 1.14, written by Peter Selinger 2001-2017
</metadata>
<g transform="translate(0.000000,555.000000) scale(0.100000,-0.100000)"
fill="#000000" stroke="none">
<path d="M2577 5542 c-15 -3 -17 -12 -13 -60 3 -31 8 -111 12 -177 3 -66 8
-138 9 -160 12 -200 17 -266 20 -305 2 -25 7 -99 11 -165 3 -66 8 -136 9 -155
2 -19 4 -46 4 -60 l1 -26 105 4 c120 5 136 1 128 -27 -4 -18 -14 -19 -104 -20
-133 -1 -184 -7 -324 -36 -147 -30 -286 -84 -497 -193 -4 -2 -42 50 -84 115
-42 65 -93 145 -115 178 -30 47 -36 62 -26 72 18 17 140 82 222 118 l73 32
-18 40 c-35 79 -35 78 17 97 27 10 62 23 80 29 l31 12 -19 55 c-10 30 -19 57
-19 61 0 4 32 15 70 25 39 10 74 21 80 24 6 3 4 27 -5 60 -8 30 -15 58 -15 62
0 3 32 12 70 19 39 7 73 15 75 18 1 3 -2 30 -7 59 -12 61 -8 68 45 75 21 3 40
7 43 10 2 2 -2 46 -11 98 -8 52 -15 97 -15 100 0 3 -17 3 -37 0 -42 -7 -42 -8
-30 -93 4 -27 3 -47 -1 -46 -9 2 -100 -12 -118 -19 -12 -4 -19 12 -38 98 -6
26 -7 27 -46 17 -22 -6 -38 -13 -36 -17 2 -3 7 -22 10 -41 3 -19 12 -61 21
-93 8 -32 15 -60 15 -62 0 -2 15 1 32 6 57 16 80 12 76 -13 -2 -13 -5 -22 -8
-21 -3 1 -45 -8 -95 -21 -49 -13 -97 -25 -105 -27 -11 -3 -25 27 -55 117 l-40
121 -35 -12 c-19 -7 -34 -19 -34 -26 1 -8 23 -81 49 -162 36 -110 51 -147 62
-143 7 3 39 13 70 22 46 13 57 14 64 3 5 -8 8 -18 6 -22 -2 -7 -228 -87 -246
-87 -4 0 -40 79 -80 175 l-73 174 -36 -15 c-20 -8 -37 -16 -38 -17 -2 -3 174
-418 179 -424 3 -2 38 9 78 26 78 30 89 31 89 3 0 -13 -33 -31 -117 -67 -65
-28 -121 -51 -124 -53 -4 -2 -13 10 -21 25 -88 172 -212 410 -218 416 -9 10
-70 -19 -70 -33 0 -12 260 -509 270 -515 4 -2 32 8 62 24 81 43 95 45 101 21
5 -18 -8 -28 -91 -69 -54 -27 -139 -77 -191 -111 -87 -57 -228 -164 -242 -183
-6 -8 -119 109 -119 123 0 6 88 85 119 107 2 1 -13 22 -33 47 -20 24 -36 48
-36 53 0 4 25 26 55 48 30 22 55 43 55 47 0 4 -14 28 -32 54 l-32 47 24 16
c70 46 69 39 7 134 l-56 87 -31 -18 c-16 -9 -30 -21 -30 -26 0 -5 14 -31 31
-58 16 -28 29 -51 27 -52 -2 -1 -27 -19 -56 -40 -29 -21 -54 -37 -56 -35 -1 2
-19 25 -40 51 l-38 48 -30 -21 c-17 -13 -27 -27 -24 -36 9 -22 110 -152 120
-152 4 -1 25 13 46 29 39 31 39 31 50 9 10 -17 8 -23 -8 -35 -11 -8 -50 -39
-87 -69 -37 -30 -70 -55 -74 -55 -4 0 -42 39 -85 88 -44 48 -83 88 -87 90 -4
2 -19 -9 -35 -23 l-27 -25 29 -32 c16 -18 34 -37 39 -43 6 -7 43 -48 84 -93
l74 -82 53 45 c56 49 66 52 83 31 9 -10 -2 -25 -51 -67 -35 -30 -79 -71 -98
-91 l-36 -37 -30 25 c-16 14 -63 58 -104 97 -41 39 -92 87 -112 106 l-38 35
-25 -24 c-14 -13 -25 -27 -25 -30 0 -10 36 -46 186 -186 71 -67 132 -125 137
-130 4 -4 35 19 68 52 l60 59 89 -95 89 -95 43 41 c81 76 224 183 231 173 2
-2 63 -97 137 -211 73 -115 137 -208 141 -208 5 0 34 17 66 37 107 68 364 176
380 159 4 -4 41 -142 83 -309 57 -224 80 -301 91 -300 8 1 48 8 89 16 102 19
273 14 372 -12 122 -32 255 -99 349 -176 22 -18 24 -24 14 -38 -11 -15 -22
-10 -110 48 -54 36 -102 65 -107 65 -4 0 -27 9 -51 19 -118 55 -344 75 -484
44 -217 -48 -409 -179 -528 -357 -75 -115 -129 -252 -134 -345 -1 -11 -20 -12
-98 -6 -54 4 -111 9 -127 11 -16 2 -68 6 -115 10 -47 3 -97 7 -111 9 -14 1
-65 5 -115 9 -49 4 -101 9 -115 11 -14 2 -69 7 -123 10 -54 4 -106 8 -115 10
-9 2 -20 4 -25 4 -4 1 -5 13 -2 29 2 15 8 48 11 73 6 46 6 46 -27 53 -73 14
-82 16 -87 20 -2 3 3 37 13 75 9 38 14 74 11 80 -4 6 -23 13 -44 17 -74 13
-74 14 -42 108 l28 84 -59 21 -58 22 23 63 c13 35 31 77 40 95 l17 31 -56 25
c-30 14 -55 30 -55 36 0 5 20 44 44 87 75 133 73 116 11 152 l-55 32 55 80
c30 44 55 83 55 87 0 4 -20 22 -45 40 -25 18 -45 35 -45 39 0 4 14 24 30 44
l30 37 -53 43 c-30 24 -67 53 -83 66 l-29 23 -22 -28 c-13 -15 -23 -31 -23
-34 0 -4 20 -22 45 -40 24 -19 45 -37 45 -42 0 -11 -73 -107 -82 -107 -5 0
-27 14 -50 30 -22 17 -44 30 -49 30 -4 0 -16 -14 -27 -32 l-21 -32 79 -53 c44
-29 84 -54 89 -55 6 -2 23 16 39 39 26 39 30 42 47 29 18 -13 16 -18 -42 -107
-33 -52 -72 -117 -88 -146 -24 -45 -30 -51 -46 -42 -24 12 -24 13 4 61 l22 41
-24 16 c-14 9 -55 32 -91 52 l-67 37 -17 -28 c-23 -40 -21 -47 21 -69 70 -37
69 -33 38 -99 l-28 -61 -46 18 c-25 10 -53 21 -62 25 -15 7 -39 -28 -39 -58 0
-7 42 -32 93 -54 l92 -41 19 44 c10 25 24 45 31 45 6 0 33 -11 58 -24 53 -26
51 -27 92 54 46 91 54 101 76 89 18 -9 16 -15 -30 -102 -27 -51 -66 -132 -86
-182 -20 -49 -40 -93 -43 -97 -4 -4 -83 20 -176 53 -93 32 -174 59 -181 59
-17 0 -37 -70 -22 -75 276 -98 421 -145 428 -138 5 5 18 34 28 64 11 30 29 76
40 102 18 43 23 47 41 37 19 -10 19 -11 -1 -63 -12 -28 -37 -99 -57 -157 -19
-58 -36 -107 -38 -108 -1 -2 -103 22 -226 54 -297 76 -274 74 -282 29 -4 -20
-6 -38 -4 -40 6 -5 570 -146 572 -143 2 2 11 35 21 73 23 88 35 115 51 115 25
0 25 -21 0 -108 -13 -48 -30 -111 -36 -140 -12 -50 -14 -53 -39 -48 -41 9
-192 35 -233 41 -91 13 -114 16 -128 20 -8 2 -31 7 -50 10 -19 3 -62 10 -95
16 -33 6 -70 12 -82 14 -18 3 -22 -2 -26 -33 -2 -21 -3 -39 -1 -41 3 -4 119
-26 179 -34 33 -5 191 -32 305 -52 14 -3 45 -8 70 -11 25 -3 63 -10 85 -15 72
-16 72 -16 85 64 17 99 20 106 46 96 21 -7 21 -9 8 -66 -7 -32 -16 -82 -20
-112 -3 -30 -7 -62 -9 -70 -1 -10 -11 -16 -26 -15 -40 2 -212 16 -239 19 -14
1 -68 6 -120 10 -52 3 -106 8 -120 10 -14 2 -68 7 -120 10 -52 3 -107 8 -122
11 -27 4 -28 3 -28 -39 l0 -43 43 -3 c23 -1 62 -4 87 -6 25 -2 85 -6 135 -10
50 -3 101 -8 115 -10 14 -2 66 -7 115 -10 50 -4 101 -8 115 -10 14 -2 73 -7
133 -10 l107 -7 1 41 c1 23 3 46 4 51 1 6 3 24 4 41 1 26 5 30 24 27 24 -3 25
-8 14 -133 -3 -33 -6 -71 -6 -85 l-1 -25 -450 0 -451 0 3 -40 3 -40 487 0 488
0 1 62 c2 89 2 88 29 86 47 -2 195 -14 235 -18 22 -2 74 -7 115 -10 41 -3 95
-8 120 -10 25 -2 77 -7 115 -10 39 -3 93 -8 120 -10 28 -3 79 -7 115 -10 36
-3 91 -8 123 -11 43 -4 57 -2 57 8 1 47 23 158 43 214 148 410 602 617 1005
458 79 -32 182 -97 234 -148 20 -20 40 -36 45 -36 4 0 27 19 51 43 l43 42 20
-25 c75 -94 169 -261 169 -301 0 -8 3 -19 7 -23 8 -8 7 -4 28 -116 15 -80 15
-230 0 -300 -3 -14 -8 -39 -11 -56 l-6 -31 62 -12 c60 -12 62 -13 55 -39 -13
-55 -84 -203 -131 -274 -49 -74 -166 -198 -239 -254 l-39 -31 37 -50 37 -51
-49 -30 c-182 -112 -388 -167 -623 -166 l-98 1 -1 -44 c-1 -23 -3 -47 -4 -53
-1 -5 -3 -14 -4 -19 0 -5 -11 -8 -23 -6 -13 2 -39 5 -58 7 l-35 3 -9 -57 c-10
-66 -17 -69 -100 -44 l-47 14 -10 -26 c-6 -15 -13 -40 -16 -55 -3 -16 -11 -31
-18 -33 -6 -3 -43 7 -81 21 -38 14 -73 27 -78 28 -5 1 -19 -23 -32 -53 -13
-32 -28 -54 -36 -52 -23 5 -81 34 -151 74 -38 22 -70 38 -71 36 -2 -1 -15 -24
-30 -50 -16 -27 -33 -48 -39 -48 -11 0 -108 70 -201 144 l-36 28 -27 -33 c-16
-18 -33 -40 -40 -48 -10 -14 -16 -12 -49 19 -54 50 -138 139 -147 156 -7 12
-19 6 -59 -27 l-50 -42 -29 34 c-17 19 -60 79 -96 134 -37 55 -67 101 -69 103
-1 2 -27 -11 -57 -28 l-55 -31 -25 43 c-52 90 -161 342 -172 398 -2 8 -11 41
-20 73 -13 45 -20 57 -33 53 -9 -3 -36 -10 -60 -17 -23 -7 -44 -10 -46 -8 -2
2 -11 37 -19 77 -9 41 -18 76 -20 79 -3 3 -31 -1 -62 -7 -31 -6 -58 -10 -60
-8 -2 2 -7 26 -11 53 -8 66 -12 87 -18 92 -2 2 -27 0 -54 -5 -28 -5 -55 -6
-61 -3 -5 4 -11 28 -12 54 l-3 48 -70 -6 c-39 -4 -84 -7 -101 -8 -28 -2 -30
-5 -33 -44 l-3 -42 65 6 c37 3 66 2 67 -3 0 -5 2 -16 3 -24 2 -8 6 -36 9 -62
l6 -46 -52 -8 c-29 -4 -56 -8 -62 -8 -5 -1 -8 -17 -7 -36 4 -39 10 -52 20 -46
4 2 30 7 57 11 142 19 140 17 124 92 -6 27 -3 33 13 39 11 3 22 3 25 1 3 -3
11 -43 19 -89 8 -46 19 -95 24 -110 10 -31 25 -24 -148 -69 l-92 -24 6 -35 c4
-19 8 -37 10 -39 5 -5 307 70 318 80 5 4 2 36 -8 75 -9 36 -16 68 -14 69 2 2
12 5 22 7 16 3 23 -12 48 -102 15 -58 31 -116 34 -130 5 -24 1 -27 -153 -79
-87 -30 -168 -58 -180 -62 -20 -7 -20 -11 -11 -43 13 -42 19 -43 90 -17 29 11
114 41 188 67 74 26 145 50 157 55 l21 8 -25 76 c-22 64 -24 78 -12 86 8 5 18
7 23 6 5 -2 23 -46 41 -98 18 -51 46 -127 64 -168 17 -41 30 -75 29 -77 -2 -1
-63 -32 -136 -68 l-134 -66 -21 49 c-23 56 -12 56 -139 -2 l-77 -36 16 -33 c9
-18 17 -34 18 -36 1 -1 28 9 60 23 31 14 59 25 60 23 7 -7 55 -113 55 -120 0
-4 -22 -19 -50 -33 -27 -14 -50 -29 -50 -33 0 -18 26 -62 36 -62 12 0 153 76
168 90 5 5 0 26 -13 50 -11 22 -21 43 -21 45 0 3 59 35 132 71 l131 66 19 -24
c9 -12 18 -27 18 -31 0 -4 15 -32 34 -62 26 -40 32 -56 23 -63 -7 -5 -103 -70
-214 -144 l-202 -134 21 -32 c11 -18 26 -31 33 -28 7 2 103 65 213 139 111 73
205 131 209 128 4 -3 20 -22 35 -42 l27 -37 -199 -157 c-110 -86 -200 -160
-200 -164 0 -3 10 -18 23 -34 l22 -27 111 87 c62 49 152 120 202 160 l91 72
31 -37 c35 -43 37 -56 11 -74 -10 -7 -79 -70 -152 -139 -74 -70 -146 -138
-161 -151 -34 -31 -35 -38 -3 -68 l25 -24 43 40 c23 22 73 69 111 105 101 94
126 117 205 192 80 76 79 66 14 137 -52 57 -131 158 -175 222 -38 56 -39 61
-23 77 16 15 18 15 28 -3 51 -81 181 -241 279 -340 64 -66 114 -124 110 -130
-12 -20 -255 -311 -262 -314 -4 -1 -22 11 -41 28 -19 16 -37 30 -41 30 -3 0
-37 -34 -74 -76 l-68 -75 29 -25 c15 -13 31 -24 34 -24 3 0 23 20 45 45 l38
46 47 -37 c25 -21 50 -41 55 -45 4 -4 -8 -29 -28 -55 -20 -26 -36 -50 -36 -54
0 -3 13 -16 30 -28 l29 -22 61 79 c33 44 60 83 60 88 0 4 -18 21 -40 36 l-40
29 67 81 c99 119 94 114 182 217 l80 95 -51 45 c-89 78 -188 181 -188 195 0
34 33 16 118 -65 51 -49 136 -122 190 -163 l98 -73 -123 -195 c-68 -107 -160
-252 -205 -323 l-82 -129 30 -23 c37 -30 31 -37 174 191 63 99 160 253 216
343 l103 162 -42 27 c-23 15 -75 52 -115 82 -58 43 -70 56 -61 67 17 21 23 18
102 -39 103 -76 162 -111 280 -170 l103 -52 -97 -245 c-53 -134 -101 -251
-106 -259 -8 -12 -18 -10 -67 12 -32 15 -63 27 -70 27 -6 0 -22 -25 -35 -55
l-23 -54 -49 24 -49 25 -25 -50 c-14 -27 -34 -66 -45 -85 -11 -20 -20 -40 -20
-45 0 -8 51 -40 64 -40 3 0 18 24 32 53 15 28 28 53 29 55 5 6 125 -58 125
-66 0 -5 -3 -12 -7 -16 -4 -4 -15 -27 -24 -51 l-17 -44 37 -14 c20 -8 37 -14
38 -13 2 1 20 45 42 96 l39 94 -49 23 c-44 20 -49 25 -40 42 11 19 14 18 98
-15 49 -19 98 -39 109 -44 22 -9 22 -9 -17 -126 -21 -65 -35 -121 -31 -125 4
-3 21 -11 38 -17 l31 -10 48 152 c27 83 50 156 52 161 2 6 -28 21 -67 34 -38
12 -70 25 -70 29 0 4 52 138 115 297 63 160 115 293 115 298 0 4 -6 7 -12 7
-7 0 -68 27 -136 60 -113 55 -122 61 -111 79 14 21 16 20 94 -20 80 -43 174
-80 266 -108 l86 -26 -83 -355 c-46 -195 -99 -421 -117 -502 l-34 -146 39 -10
c44 -11 36 -27 83 178 15 63 39 169 55 235 16 66 31 131 34 145 2 14 30 130
60 258 61 253 62 262 44 262 -7 0 -61 14 -120 31 -86 25 -108 35 -108 50 0 27
14 30 61 13 39 -13 147 -42 222 -58 23 -6 27 -10 22 -34 -10 -61 -44 -290 -50
-337 -3 -27 -10 -75 -15 -105 -5 -30 -11 -71 -14 -90 -16 -113 -38 -258 -41
-279 -14 -80 -38 -250 -39 -276 -1 -26 3 -30 34 -36 19 -4 36 -7 37 -5 2 2 15
84 39 244 3 20 9 62 14 92 5 30 12 78 15 105 4 28 10 75 15 105 5 30 12 75 15
100 10 72 15 108 35 235 10 66 22 140 25 165 3 25 8 56 10 70 2 14 6 44 10 66
l6 41 -87 16 c-47 9 -88 18 -90 19 -2 2 -1 14 3 26 4 18 10 21 27 16 11 -4 30
-8 41 -10 39 -5 100 -15 128 -20 l28 -6 -6 -101 c-3 -56 -7 -127 -10 -157 -2
-30 -7 -102 -10 -160 -4 -58 -8 -125 -10 -150 -2 -25 -7 -101 -10 -170 -4 -69
-8 -141 -10 -160 -5 -39 -18 -284 -19 -345 -1 -39 0 -39 37 -40 27 -1 37 3 38
14 1 9 2 27 4 41 1 14 5 81 9 149 4 68 9 144 11 170 2 25 6 96 10 156 3 61 8
135 10 165 5 78 16 244 20 315 2 33 7 107 10 165 4 58 8 124 9 147 l3 43 -46
1 c-25 1 -50 2 -56 4 -5 1 -16 3 -22 3 -7 1 -13 14 -13 28 0 19 4 24 18 20 9
-3 45 -6 79 -7 34 -1 66 -5 70 -8 5 -3 8 -31 9 -61 1 -122 16 -841 19 -925 1
-49 3 -165 4 -257 l1 -168 40 0 c31 0 40 4 41 18 1 25 -3 301 -6 422 -2 58 -6
263 -10 455 -7 335 -12 535 -14 582 -1 18 -7 21 -48 21 -69 0 -72 0 -68 20 2
9 4 19 4 22 1 3 36 5 79 6 71 1 154 9 206 20 12 3 32 7 46 10 62 12 212 70
291 111 267 140 484 390 584 675 15 43 29 78 31 78 10 0 306 -71 347 -84 26
-8 47 -11 47 -8 0 3 5 1 11 -5 13 -13 -12 -94 -68 -228 -18 -44 -33 -80 -33
-81 0 -2 25 -14 55 -28 30 -14 55 -28 55 -31 0 -19 -122 -212 -189 -299 l-75
-98 47 -42 47 -41 -82 -82 c-92 -92 -189 -171 -290 -239 -38 -25 -68 -48 -68
-50 0 -3 13 -25 30 -49 16 -24 30 -48 30 -53 0 -5 -51 -36 -113 -68 l-114 -58
24 -53 c13 -29 22 -57 19 -62 -3 -5 -59 -28 -123 -52 -65 -23 -121 -45 -126
-49 -4 -3 2 -32 12 -63 l20 -57 -37 -9 c-20 -6 -68 -18 -106 -27 l-68 -17 6
-41 c4 -23 9 -51 13 -63 4 -18 1 -23 -13 -24 -18 0 -46 -5 -84 -14 -8 -2 -23
-4 -32 -4 -18 -1 -18 -19 -2 -103 5 -23 2 -28 -15 -29 -12 -1 -25 -3 -31 -4
-5 -1 -22 -3 -36 -4 -14 0 -23 -4 -21 -8 3 -5 8 -48 12 -98 4 -50 10 -94 15
-98 4 -5 24 -5 44 -2 30 6 35 11 32 29 -3 11 -7 40 -10 62 l-6 42 57 7 c31 4
62 9 69 12 13 5 20 -12 30 -72 3 -22 9 -43 12 -46 13 -13 72 3 72 18 0 43 -34
193 -44 193 -6 -1 -30 -4 -53 -9 -38 -7 -42 -6 -46 15 -4 20 1 24 32 30 20 3
71 14 114 24 42 10 79 15 81 11 2 -3 16 -51 31 -106 37 -135 38 -136 78 -123
17 6 33 12 34 13 3 1 -27 111 -72 272 l-15 51 -72 -19 c-40 -10 -74 -19 -74
-19 -1 0 -4 11 -6 24 -5 25 -5 25 142 61 31 8 158 53 179 64 20 11 23 8 50
-52 48 -106 48 -102 -8 -123 l-49 -19 35 -95 c20 -52 37 -96 38 -98 2 -2 19 4
39 12 l36 15 -20 53 c-11 29 -20 56 -20 59 0 7 121 62 125 57 1 -2 14 -27 29
-55 14 -29 29 -53 32 -53 8 0 64 30 64 34 0 5 -80 180 -85 184 -2 2 -22 -6
-45 -18 -25 -13 -46 -18 -51 -13 -5 5 -29 56 -53 114 -25 57 -48 104 -53 104
-4 0 -50 -15 -101 -34 -51 -18 -94 -32 -96 -30 -2 2 -6 12 -8 22 -2 15 13 25
82 50 47 17 150 63 229 103 80 41 146 72 147 71 10 -11 154 -242 154 -247 0
-3 -18 -16 -40 -29 -22 -12 -40 -27 -40 -33 0 -9 34 -70 86 -155 l14 -22 34
20 35 20 -30 51 c-16 28 -29 54 -27 59 2 5 28 24 58 43 l54 34 33 -49 c37 -54
47 -58 81 -29 l23 19 -53 78 c-29 42 -56 81 -59 86 -3 5 -26 -5 -50 -21 l-43
-30 -21 31 c-12 18 -59 91 -104 164 l-84 131 -51 -32 c-74 -48 -181 -106 -193
-106 -6 0 -13 9 -16 20 -4 17 6 26 64 56 38 19 126 73 195 119 69 47 127 85
129 85 3 0 269 -319 369 -442 l38 -47 29 21 c16 12 29 25 29 30 0 7 -223 282
-314 388 -17 20 -47 56 -66 80 -19 24 -44 54 -55 66 l-20 23 -98 -74 c-101
-78 -123 -87 -129 -58 -2 13 22 36 79 78 142 105 248 208 389 377 45 54 162
239 199 316 26 53 46 81 57 82 32 0 29 -19 -19 -112 -26 -51 -49 -96 -51 -99
-2 -4 22 -21 52 -38 l56 -31 -60 -91 -60 -91 43 -30 c23 -17 46 -34 51 -39 5
-4 -14 -37 -43 -73 l-52 -65 46 -37 c25 -21 45 -41 45 -45 0 -8 -4 -12 -60
-72 l-34 -37 42 -43 c23 -23 42 -46 42 -49 0 -3 -15 -21 -34 -40 l-35 -35 74
-73 74 -74 26 24 c14 13 25 26 25 30 0 3 -18 25 -40 49 l-41 43 38 43 c21 24
44 45 51 49 7 3 32 -12 56 -34 l43 -40 28 30 29 30 -30 28 c-16 15 -53 46 -81
70 l-51 42 -32 -40 c-31 -39 -33 -40 -51 -24 -17 16 -16 19 39 83 32 37 65 77
74 90 l17 23 103 -75 103 -76 22 27 c13 15 21 32 20 37 -4 11 -255 195 -266
195 -3 0 -24 -25 -45 -55 -41 -57 -55 -65 -75 -41 -9 10 -8 16 3 25 8 7 43 54
77 104 34 51 64 94 65 96 2 2 74 -40 162 -93 87 -53 163 -96 168 -96 6 0 17
14 26 32 l15 32 -194 118 c-107 65 -196 118 -198 118 -3 0 -26 -32 -51 -71
-37 -59 -47 -69 -59 -59 -21 17 -20 23 22 87 20 32 60 101 88 154 l50 96 135
-59 c74 -33 136 -61 138 -62 1 -2 -7 -24 -19 -50 -11 -26 -19 -49 -17 -51 8
-8 169 -85 176 -85 7 0 15 12 40 62 2 4 -22 19 -53 33 -49 21 -56 27 -50 46
11 33 45 109 50 109 2 0 27 -9 55 -20 28 -11 54 -20 59 -20 10 0 31 69 22 74
-18 12 -163 66 -175 66 -8 0 -22 -20 -32 -45 -9 -25 -18 -45 -19 -45 -2 0 -79
34 -171 75 -92 41 -171 75 -175 75 -3 0 -27 -43 -52 -95 -43 -88 -48 -95 -67
-85 -11 6 -20 12 -20 14 0 2 20 43 44 92 24 49 59 131 77 181 19 51 39 91 44
89 6 -1 142 -42 303 -91 192 -57 297 -84 303 -78 5 5 11 23 12 39 l2 28 -340
103 c-187 57 -341 103 -341 103 -1 0 -19 -49 -39 -109 l-37 -109 -54 24 c-30
13 -58 24 -62 24 -4 0 -18 -26 -32 -58 -49 -113 -168 -313 -242 -405 -21 -25
-25 -26 -42 -14 -18 13 -16 17 36 88 105 143 171 261 229 406 38 94 87 252 95
305 4 21 10 41 15 43 8 6 655 -101 669 -110 4 -3 3 -25 -2 -51 -6 -25 -8 -47
-6 -49 2 -2 46 -13 98 -24 94 -21 108 -19 111 14 0 6 2 17 4 26 2 13 -11 20
-56 29 l-59 13 1 36 c1 20 4 50 8 66 6 30 7 30 71 30 l64 0 7 38 c5 35 4 37
-20 38 -14 0 -35 2 -46 4 -58 11 -146 16 -144 9 4 -21 -2 -70 -10 -82 -6 -11
-20 -11 -67 -3 -32 6 -77 13 -99 16 -22 3 -51 8 -65 11 -31 6 -45 8 -195 33
-66 11 -138 23 -160 27 -22 3 -70 11 -107 18 l-67 13 -6 -41 c-13 -83 -57
-242 -92 -332 -32 -86 -37 -93 -55 -83 -12 7 -18 17 -14 27 3 10 23 69 45 132
39 113 77 287 84 385 l4 50 109 -1 c60 -1 181 -4 269 -8 88 -4 201 -9 250 -11
50 -2 160 -6 246 -10 l157 -6 0 40 c1 38 -1 41 -26 42 -35 0 -148 5 -337 13
-82 4 -195 9 -250 11 -99 4 -371 15 -452 19 l-43 2 -1 -45 c0 -26 -2 -59 -4
-76 -2 -16 -7 -54 -10 -83 -3 -30 -11 -66 -16 -80 -6 -15 -11 -29 -12 -32 -3
-8 -19 -5 -262 55 -125 30 -229 54 -230 53 -1 -2 -16 -48 -33 -103 -59 -189
-163 -356 -306 -492 -74 -71 -80 -75 -93 -58 -12 17 -5 27 70 101 141 139 239
303 291 486 33 116 44 202 41 328 -5 154 -25 260 -76 385 -16 38 -25 72 -21
76 4 4 52 30 107 59 55 29 239 127 408 217 170 91 310 163 312 161 9 -10 56
-113 80 -175 16 -40 34 -73 40 -73 7 0 32 7 55 15 23 8 46 15 50 15 8 0 36
-83 60 -179 11 -42 12 -43 43 -36 99 21 94 22 105 -31 14 -64 26 -147 24 -156
-1 -4 8 -5 21 -3 12 2 42 5 66 7 48 3 47 4 52 -76 4 -66 5 -67 73 -64 l61 3 3
-52 3 -52 62 4 c34 2 81 4 105 4 l42 1 0 40 0 40 -61 -1 c-33 -1 -63 1 -66 5
-3 3 -8 35 -10 71 -5 65 -5 65 21 66 14 1 31 3 36 4 6 1 21 3 35 4 22 1 25 5
25 42 l0 41 -67 -8 c-38 -4 -77 -8 -88 -10 -11 -1 -28 -3 -38 -3 -16 -1 -17
-8 -13 -55 5 -50 3 -54 -18 -58 -22 -4 -24 -1 -39 111 -9 63 -15 117 -13 119
3 3 231 52 242 52 1 0 0 12 -3 28 -3 15 -6 33 -6 40 0 6 -5 12 -11 12 -19 -1
-316 -66 -321 -71 -2 -3 0 -21 4 -40 22 -86 23 -106 1 -112 -24 -6 -28 -1 -36
49 -3 22 -19 91 -36 154 -17 63 -32 124 -35 135 -4 17 7 24 74 47 43 14 81 24
84 22 3 -2 12 -24 19 -49 7 -25 15 -45 19 -45 3 0 47 13 96 28 87 28 90 30 88
57 -3 44 -15 49 -74 32 -29 -9 -56 -14 -58 -11 -9 9 -41 98 -41 114 0 14 70
50 99 50 8 0 11 6 7 16 -3 9 -9 27 -12 40 -3 13 -10 24 -14 24 -11 0 -178 -65
-185 -71 -3 -3 2 -27 11 -53 9 -26 15 -48 13 -50 -2 -2 -56 -21 -119 -44 -78
-27 -114 -45 -111 -54 2 -7 16 -53 31 -101 l28 -88 -21 -9 c-25 -9 -22 -15
-66 125 -18 55 -47 136 -66 179 -19 44 -34 80 -32 82 1 1 104 52 229 114 l226
112 -13 31 c-7 17 -18 33 -23 35 -6 2 -127 -56 -270 -127 l-261 -131 43 -92
c57 -123 57 -125 40 -132 -26 -10 -31 -7 -45 27 -29 74 -122 252 -168 325 -28
44 -51 82 -51 85 0 5 300 227 337 250 7 4 32 -26 68 -83 l57 -90 37 22 c20 12
60 37 89 55 l53 33 -18 30 c-9 17 -22 30 -28 30 -6 0 -32 -13 -58 -30 l-47
-29 -40 59 -40 59 44 31 c59 40 61 44 35 79 l-22 30 -47 -34 c-26 -19 -50 -35
-53 -35 -3 0 -24 23 -48 51 l-43 51 49 43 48 43 -26 31 -26 31 -38 -32 c-21
-18 -57 -49 -79 -69 l-41 -37 63 -78 c35 -43 64 -82 64 -86 0 -3 -92 -73 -204
-155 l-203 -149 73 -109 c41 -61 73 -116 71 -123 -2 -13 -27 -27 -297 -169
-69 -36 -138 -73 -155 -83 -31 -18 -119 -65 -320 -170 -66 -35 -121 -64 -123
-66 -2 -1 10 -28 26 -60 71 -141 110 -318 107 -479 -3 -134 -11 -167 -38 -163
-14 2 -21 9 -18 18 11 43 9 263 -4 330 -45 250 -189 481 -391 626 -114 82
-290 153 -429 172 -55 8 -240 8 -296 0 l-45 -6 -24 96 c-13 53 -25 102 -26
107 -1 6 -10 39 -19 75 -9 36 -18 72 -20 80 -2 8 -12 51 -23 94 -12 44 -19 83
-17 87 6 9 69 20 190 34 59 7 240 7 273 1 27 -6 30 2 34 69 l3 50 50 -3 c28
-2 78 -9 113 -17 72 -15 74 -13 87 62 4 24 10 45 13 47 4 2 57 -13 118 -34
l111 -37 18 51 c10 28 21 55 25 59 4 5 38 -5 75 -22 38 -17 69 -30 70 -29 2 2
14 27 29 56 14 28 29 52 33 52 3 0 36 -16 72 -36 l65 -36 17 24 c10 13 24 35
30 51 6 15 17 27 23 27 6 0 38 -18 71 -40 33 -22 63 -40 66 -40 3 0 22 22 41
50 l35 50 67 -50 68 -51 21 28 c12 15 31 38 42 50 l20 22 55 -50 55 -50 44 46
43 46 32 -28 c17 -15 33 -32 37 -36 6 -8 149 129 149 142 0 4 -11 18 -25 31
l-25 24 -45 -44 c-49 -48 -43 -49 -114 17 l-35 31 37 48 c20 26 37 50 37 54 0
3 -13 16 -29 27 l-28 22 -66 -80 -66 -80 40 -36 c36 -33 38 -38 25 -52 -14
-14 -19 -13 -43 7 -16 12 -56 43 -90 69 -35 27 -63 50 -63 54 0 3 31 50 70
105 38 54 70 101 70 104 0 6 -54 40 -63 40 -7 0 -187 -258 -187 -268 0 -5 25
-26 55 -47 55 -37 68 -61 41 -71 -11 -4 -174 98 -220 137 -4 4 33 78 83 164
50 86 91 162 91 168 0 7 -13 20 -30 29 l-29 16 -29 -46 c-40 -63 -202 -348
-202 -354 0 -3 32 -25 70 -48 61 -37 69 -45 58 -59 -7 -9 -13 -17 -14 -19 -1
-2 -31 15 -67 37 -36 22 -89 52 -116 66 -28 14 -51 28 -51 31 0 5 75 169 164
356 25 53 46 99 46 102 0 11 -63 37 -71 29 -4 -4 -47 -91 -94 -193 -48 -102
-103 -218 -122 -258 -19 -41 -33 -75 -31 -77 2 -2 36 -20 76 -40 65 -32 72
-38 60 -53 -7 -9 -13 -18 -14 -20 -1 -3 -234 108 -234 112 0 2 41 113 91 247
140 374 132 347 108 360 -11 6 -28 12 -38 14 -18 3 -17 7 -186 -452 l-82 -222
69 -27 c38 -14 72 -33 75 -41 13 -34 -16 -32 -119 7 -59 22 -111 40 -117 40
-6 0 -6 11 0 33 11 38 139 495 144 517 2 8 16 55 29 104 14 49 25 90 23 91 -1
1 -17 7 -34 13 -42 14 -39 20 -98 -193 -54 -196 -95 -343 -100 -365 -2 -8 -18
-62 -34 -120 -17 -58 -31 -112 -31 -121 0 -10 17 -19 53 -28 66 -17 87 -28 87
-46 0 -24 -15 -25 -86 -4 -76 22 -174 44 -244 54 -25 4 -52 9 -60 10 -8 2 -21
4 -28 4 -8 1 -11 11 -8 29 3 15 8 70 11 122 4 52 8 106 10 120 2 14 6 68 10
120 4 52 9 104 10 115 1 11 3 28 4 38 1 15 8 17 49 12 26 -3 59 -8 74 -11 29
-6 32 -1 43 77 l6 46 42 -8 c63 -12 64 -12 71 24 3 17 8 43 11 57 3 14 8 46
11 71 6 46 6 46 -25 51 -41 6 -48 0 -55 -47 -11 -69 -14 -75 -44 -69 -53 10
-67 12 -88 13 -20 1 -21 5 -17 54 2 28 6 58 8 65 2 6 -1 12 -8 12 -7 0 -21 3
-32 5 -35 9 -44 -8 -51 -100 -3 -50 -8 -93 -11 -97 -2 -5 7 -9 21 -9 14 -1 31
-3 36 -4 6 -1 19 -3 30 -4 13 -1 20 -8 20 -21 0 -25 -3 -26 -130 -16 -36 3
-75 5 -88 5 -23 1 -23 3 -22 104 3 169 6 157 -39 157 l-39 0 -1 -116 c-1 -63
-2 -119 -2 -122 -1 -4 -1 -28 0 -53 l1 -46 63 -2 c34 -2 68 -4 75 -4 13 0 12
-23 -3 -167 -2 -19 -7 -78 -10 -130 -4 -52 -8 -102 -10 -110 -2 -8 -7 -60 -10
-115 -4 -55 -8 -104 -9 -109 -1 -9 4 -11 94 -20 94 -10 143 -20 141 -28 0 -5
-1 -15 -1 -24 0 -14 -7 -15 -42 -9 -24 3 -54 9 -68 11 -14 2 -86 7 -160 10
-74 4 -137 8 -140 11 -2 2 -5 14 -6 26 -1 12 -5 76 -9 142 -3 66 -8 141 -11
167 -2 27 -6 96 -9 155 -4 60 -8 133 -10 163 -2 30 -7 107 -11 170 -4 63 -8
126 -10 140 -1 14 -2 32 -3 41 -1 16 -24 20 -64 11z"/>
</g>
</svg>
