<?xml version="1.0" standalone="yes"?>
<svg xmlns="http://www.w3.org/2000/svg" width="555" height="555">
<path style="fill:#ffffff; stroke:none;" d="M0 0L0 255L1 255L1 250L78 256C78.4824 249.888 84.9823 232.34 78 230L75 248C52.41 242.435 26.2419 236.998 3 236L4 227L68 237L75 209L71 208L66 228C48.1056 221.249 25.9629 215.554 7 213L9 204L59 217C62.5115 208.84 70.6791 192.595 69 184L67 184L59 206L14 191L16 182L41 190.656L51.7253 193.212L57.2809 184L70 157L69 156C63.1149 159.058 60.459 167.094 58 173L46 168C38.9432 180.327 33.2421 172.237 22 169C25.3849 159.354 30.1192 163.643 38 165C42.0519 155.268 42.5261 152.384 32 148C37.2453 136.151 46.6974 146.422 55 150L50 160L54 161C58.1164 153.176 70.4116 139.682 69 131L67 131C59.204 142.335 42.625 131.885 48 120L60 127L67 116C60.7916 111.397 57.9756 109.529 61 102C65.4298 103.713 76.4958 109.888 77.2338 115.09C77.646 117.994 74.2603 121.524 73 124L83 130L72 148L80.6975 154.379L71 176L82 180L74 200C88.183 203.361 83.3511 209.64 81 221L93 224L89 241L102 243L100 258C123.366 258.482 146.644 263.139 170 263.989C175.134 264.176 188.132 267.96 192.4 264.933C194.692 263.308 194.727 258.495 195.428 256C197.262 249.476 199.623 242.881 203.015 237C214.964 216.28 233.783 201.272 257 195.156C274.8 190.467 294.136 192.714 311 199.605C318.396 202.627 328.224 213.12 336 212L336 210C308.111 189.966 284.061 187.548 251 192L236 130C219.165 133.895 205.015 143.008 190 151L163 108C153.424 113.456 142.926 121.41 136 130L135 130L119 111L107 123L106 123C97.3547 111.696 83.6425 99.2012 72 91L72 90C85.2873 78.8918 92.7744 105.607 105 108.654C110.372 109.994 121.242 96.5968 125 93L125 92L123 90L122 90C119.479 92.3219 114.87 97.9463 111.039 97.3727C106.415 96.6802 91.3136 79.5906 90.6265 75.0015C90.2497 72.4844 92.7222 69.9355 94 68L95 68L112 87L113 87C117.621 82.5781 129.032 76.9868 128 70L118 76L106 58C113.414 54.4798 115.281 56.6401 120 63L131 57C130.212 53.6465 126.422 49.4506 126.871 46.0949C127.216 43.5189 130.327 41.6804 132.674 42.882C142.539 47.9319 144.054 59.1732 135 64L142 76L130 84L130 85L138 95L125 104L136 117L137 117C147.84 107.022 160.235 98.7295 173 91.4275C178.383 88.3485 187.012 86.3562 189 80L173.213 84.5818L164.752 71L145 33L153 29L169.753 62L177.213 73.1837L201 64L200 61L184 67L166 23C179.439 17.6803 183.876 45.388 189 55L214 47L213 43C209.341 43.8388 201.902 47.6474 198.51 45.2122C194.775 42.5303 187.135 19.5082 189.212 15.4298C190.374 13.1481 193.799 12.6467 196 12L204 36L226 31L225 27L215 29C212.354 19.6073 206.399 8.49042 219 6L221 18L234 16L233 3C244.514 2.22681 243.806 14.6019 244 24L234 25L236 38C222.545 39.0709 223.032 42.1428 224 54L209 57C210.13 69.938 210.168 70.7153 197 75L201 88C194.946 89.6559 172.853 96.922 172.103 104.104C171.725 107.723 175.803 112.19 177.667 115C182.888 122.87 188.407 130.751 193 139C223.289 124.859 251.825 113.303 286 116C284.465 107.158 269.411 111.947 263 112C258.404 75.634 256 36.6641 256 0L0 0z"/>
<path style="fill:#8892c4; stroke:none;" d="M256 0L259.91 65L263 112C269.833 111.981 283.297 107.443 286 116C255.272 112.117 218.742 122.023 193 139C189.784 130.516 183.357 122.549 178.333 115C176.488 112.226 172.273 107.711 172.846 104.104C173.995 96.8713 194.926 90.3564 201 88L197 75C210.785 71.811 210.887 69.7782 209 57L224 54C223.49 42.3094 223.051 39.6722 236 38L234 25L244 24C243.92 14.387 244.873 1.54041 233 3L234 16L221 18L219 6C206.13 7.67334 211.517 19.7673 215 29L225 27L226 31L204 36L196 12C183.645 14.6015 190.828 25.132 193.424 34C194.371 37.2332 195.368 44.0277 198.51 45.8789C201.981 47.9242 209.497 44.1203 213 43L214 47L189 55C185.293 45.4456 178.686 15.9341 166 23L184 67L200 61L201 64L177.213 72.5818L169.753 61L153 29L145 33L164.752 72L173.213 85.1837L189 80C185.819 86.1234 177.749 88.1391 172 91.4275C160.184 98.1863 145.372 106.06 137 117L136 117L125 104L138 95L130 85L130 84L142 76L135 64C145.508 60.1424 142.322 46.4452 132.674 42.1613C129.074 40.5626 125.326 44.5301 126.426 48.0146C127.419 51.1605 129.815 53.8725 131 57L120 63C116.344 55.8443 112.969 53.2368 106 58L118 76L128 70C127.674 77.316 117.151 81.3607 113 87L112 87L95 68L94 68C85.7109 76.9993 96.36 83.9145 102.975 91C105.052 93.2245 107.748 97.6566 111.039 98.0795C115.238 98.6188 119.772 92.9128 122 90L123 90L125 92L125 93C120.606 96.0042 110.199 109.158 105 107.793C93.7375 104.836 83.514 76.3698 72 90L72 91L106 123L107 123L119 111L135 130L136 130L163 108L190 151L236 130L251 192C272.519 190.242 290.046 186.965 311 195.453C320.129 199.151 327.328 205.681 336 210L336 212C327.878 211.722 319.67 202.739 312 199.605C295.364 192.807 276.685 190.834 259 194.45C235.429 199.269 215.725 214.506 203.605 235C199.776 241.475 197.074 248.733 195.156 256C194.449 258.679 194.454 263.315 191.683 264.802C185.764 267.98 170.557 264.062 164 263.285C143.129 260.815 121.005 258.174 100 258L102 243L89 241L93 224L81 221C84.1531 209.889 88.7749 202.213 74 200L82 180L71 176C76.3914 164.452 87.9587 154.877 72 148L83 130L73 124C80.7337 113.516 73.3087 104.925 61 102C56.5438 109.215 59.9365 112.394 67 116L60 127L48 120C40.5557 131.504 60.5949 144.412 67 131L69 131L54 161L50 160L55 150C47.4548 145.382 35.8315 135.147 32 148C42.094 153.898 41.0193 154.521 38 165C30.19 162.864 24.4868 158.692 22 169C32.3362 173.298 40.5657 181.214 46 168L58 173L69 156L70 157L57.2809 183L51.7253 192.647L41 190.308L16 182L14 191L59 206L67 184L69 184L59 217L9 204L7 213L66 228L71 208L75 209L68 237L4 227L3 236L75 248L78 230C84.52 233.788 78.2858 249.343 78 256L1 250L0 259L86 266C86.1189 260.238 85.62 251.937 92 250L90 273L0 273L0 282L98 282L99 267C123.989 267.069 149.038 271.825 174 273.039C181.475 273.402 191.574 276.84 198.852 274.682C203.568 273.284 204.37 256.67 206.204 252C212.519 235.926 223.255 222.232 238 213.066C258.081 200.582 284.156 197.473 306 207.312C315.495 211.589 322.341 218.311 331 223.663C336.815 227.257 339.688 217.72 344.7 220.636C349.97 223.702 354.052 232.755 356.741 238C367.301 258.598 367.575 279.822 363 302L385 306L386 298C382.562 297.535 377.023 297.015 375.117 293.606C372.794 289.45 375.002 278.866 375 274C374.996 262.838 372.746 251.365 368.547 241C352.21 200.669 302.487 167.932 258 182L244 128L294 125L295 112L317.272 114.933L321 104L344 111L348 99C357.979 104.32 364.338 106.713 368 94L383 102L389 91L404 100L410 90C420.091 95.7495 424.04 102.025 432 90L433 90C435.418 92.9982 440.509 99.4177 444.961 97.8241C447.744 96.8276 449.094 93.0695 452.09 92.6304C455.145 92.1824 457.006 95.8207 460 95.794C464.107 95.7573 472.697 86.8145 473.654 83.0008C476.467 71.8015 462.303 81.733 460 85L459 85C451.926 74.9453 453.862 75.6832 458 65C447.011 58.1218 432.256 76.9815 445 83L443 87L442 87L427.538 72.8264L440 51C437.817 49.8167 434.821 47.4029 432.184 48.3055C425.625 50.5508 415.114 69.6251 413 76L425 84L425 85L423 87L422 87C416.831 81.1803 408.435 75.3692 401 73C407.286 62.7309 417.713 49.8591 420 38L412 35L389 76L403 84L403 86L378 75L400 28L392 24L366 79L381 86L380 90L356 79C363.065 63.8925 367.899 47.5872 373.808 32C375.367 27.8865 380.883 18.6589 373.96 16.8627C367.663 15.2291 365.793 26.7869 364.192 31C357.659 48.1937 349.146 66.0867 345 84L360 90L359 94L336 86C339.899 67.16 346.269 48.5411 351.424 30C352.56 25.9169 358.115 14.4076 354.382 10.9391C346.541 3.65283 343.877 22.9319 342.709 27C336.674 48.0247 327.92 70.336 325 92L340 96L339 100C326.782 94.7419 311.309 91.2747 298 91L302 35L318 37L319 25L330 27L334 5L325 4L323 16L310 15C310.024 6.43073 312.548 1.03735 302 1C301.504 12.5541 295.822 22.9899 311 23L310 27L287 26L288 0L279 0L278 34L293 35L288 99L312 102L311 106C298.272 101.975 284.179 103 271 103L265 0L256 0z"/>
<path style="fill:#ffffff; stroke:none;" d="M265 0L271 103L311 106L312 102L288 99L293 35L278 34L279 0L265 0M288 0L287 26L310 27L311 23C296.154 22.9573 301.774 11.97 302 1C311.926 1.11737 310.005 6.99225 310 15L323 16L325 4L334 5L330 27L319 25L318 37L302 35L298 91L339 100L340 96L325 92C329.451 70.4905 336.647 49.1179 342.709 28C343.846 24.0404 346.285 5.41327 353.644 10.9576C357.975 14.2208 352.277 25.8445 351.151 30C346.198 48.2874 338.529 67.2326 336 86L359 94L360 90L345 84C350.819 66.1453 357.95 48.5717 364.576 31C366.079 27.0167 368.392 14.478 374.841 17.6312C380.012 20.1593 374.391 29.3417 373.053 33C367.443 48.3391 361.233 63.5313 356 79L380 90L381 86L366 79L392 24L400 28L378 75C385.337 78.0553 395.07 87.2893 403 86L403 84L389 76L412 35L420 38L401 73L422 87L423 87L425 85L425 84L413 76C418.216 65.5145 427.527 46.4621 440 51C436.915 55.9991 425.756 66.7958 426.881 72.8264C427.827 77.8933 438.342 83.499 442 87L443 87L445 83C433.835 74.9502 447.474 60.5541 458 65C452.428 74.6521 450.362 76.3311 459 85L460 85C461.966 83.0367 472.944 72.5189 472.944 82.0092C472.944 85.8505 463.808 94.8759 460 94.9491C457.029 95.0062 455.161 91.5203 452.09 91.9213C448.414 92.4011 447.023 97.8607 442.996 97.3727C439.447 96.9425 435.579 92.2525 433 90L432 90C422.173 100.659 421.386 94.3798 410 90L404 100L389 91L383 102L368 94C362.934 106.165 358.637 103.127 348 99L344 111L321 104L317.272 114.307L295 112L294 125C276.922 124.647 260.872 123.843 244 128L258 182C303.828 170.71 352.457 199.952 368.935 243C373.789 255.68 375.064 268.551 374.999 282C374.974 287.16 372.204 293.668 378 296C378.676 280.258 379.981 265.447 375.573 250C374.003 244.501 365.68 231.404 367.418 226.213C369.301 220.592 384.899 215.321 390 212.752C412.074 201.636 433.176 187.503 456 178L442.871 154.09L453 144.71L482 124C479.585 119.27 470.595 112.329 470.966 107.004C471.651 97.1815 485.377 92.7897 491 100C480.885 105.252 483.227 110.204 489 118L501 111C504.858 120.57 498.676 117.292 496.447 125.174C492.684 138.477 509.427 131.971 514 130C517.063 140.351 507.309 145.053 498 148L488 131L453 155L476 200L480 199L471 176L525 150L528 159L483 180L496 219L500 218L494 197L518 189L514 179L535 171C536.49 179.982 533.833 180.336 526 184C528.806 196.127 532.035 195.537 543 193L545 202L524 208C521.074 195.243 515.07 199.593 505 203C507.167 210.636 509.916 236.652 518 238L515 222L549 216C549.786 227.685 534.629 228.214 525 229L528 252L532 252L531 241L553 238L554 247L541 248L542 262L555 262L555 0L288 0z"/>
<path style="fill:#71c7b9; stroke:none;" d="M482 124L451 145.424L442.113 154.09L456 178C432.757 184.696 410.592 201.879 389 212.752C384.133 215.203 368.235 220.653 366.816 226.213C365.28 232.237 374.121 245.692 375.848 252C380.031 267.282 378.128 281.522 378 297C389.667 298.434 388 288.303 388 279C388 261.958 385.569 244.057 377 229C406.879 220.392 431.164 194.612 461 186L471 211L484 207L490 230L502 227L506 248L519 246L520 261L533 261L534 271L555 270L555 262L542 262L541 248L554 247L553 238L531 241L532 252L528 252L525 229C534.85 228.571 550.471 227.936 549 216L515 222L518 238C509.43 235.4 508.117 211.141 505 203C515.314 200.556 520.058 195.704 524 208L545 202L543 193C531.895 194.64 529.815 195.723 526 184C534.326 181.183 537.359 179.938 535 171L514 179L518 189L494 197L500 218L496 219L483 180L528 159L525 150L471 176L480 199L476 200C473.292 184.273 461.769 167.999 453 155L488 131L498 148C507.563 146.156 518.488 140.198 514 130C510.789 130.945 508.186 132.804 505.093 133.948C501.146 135.407 495.113 128.543 497.022 124.749C498.457 121.9 502.645 121.09 503.543 117.828C504.202 115.439 502.117 112.92 501 111L489 118C484.542 109.263 482.046 106.833 491 100C485.959 90.4058 470.586 97.5702 470.167 107.004C469.93 112.358 478.935 119.865 482 124z"/>
<path style="fill:#ffffff; stroke:none;" d="M377 229C395.553 274.222 390.291 332.505 347 363L348 367C362.928 360.039 375.668 339.723 381.999 325C384.401 319.416 386.103 306.505 390.564 302.643C393.877 299.775 401.331 303.209 405 304.127C413.319 306.206 421.617 308.401 430 310.21C432.516 310.753 436.896 312.658 439.258 310.933C442.652 308.456 442.627 297.88 442.911 294C443.253 289.337 443.904 284.672 444 280L555 285L555 270L534 271L533 261L520 261L519 246L506 248L502 227L490 230L484 207L471 211L461 186L433 199.691L377 229M99 267L98 282L0 282L0 296L22 295L23 305L36 304L38 319L50 316L54 333L65.4869 331.697L72 349L89 387L101 380C103.489 386.799 111.857 403.262 119.09 405.744C123.701 407.326 126.339 400.293 130.999 402.636C142.139 408.236 145.612 426.641 157 410L158 410L180 428L181 428L188.185 419.446L211 429L215 418L233 424L236 412L250 415L252 403L264 404L265 392C292.656 392 317.374 388.634 341 373C339.648 370.283 335.091 365.637 335.731 362.514C336.763 357.468 349.285 349.851 352.961 346C363.123 335.355 373.689 319.019 375 304L363 302C369.053 280.462 366.97 256.953 356.741 237C354.079 231.808 349.995 222.691 344.7 219.752C339.865 217.068 337.139 225.739 332 223.404C323.212 219.409 316.149 211.433 307 207.312C284.705 197.269 257.518 200.31 237 213.066C222.292 222.209 211.925 235.917 205.814 252C203.804 257.291 203.82 273.098 197.941 274.681C188.796 277.145 174.422 273.07 165 272.17C143.293 270.096 120.8 267.014 99 267M86 266L0 259L0 273L90 273L92 250C85.2037 251.134 86.0469 260.337 86 266z"/>
<path style="fill:#67bf79; stroke:none;" d="M444 280C443.744 285.957 444.334 307.686 438.566 310.799C435.494 312.457 429.176 309.869 426 309.116C416.884 306.955 401.353 299.501 392.144 301.408C387.188 302.435 385.492 315.8 383.716 320C379.169 330.752 373.329 341.099 365.7 350C361.204 355.245 353.934 359.864 350.711 366C348.949 369.355 351.21 372.233 353 375C373.332 363.248 392.551 334.354 396 311L438 321L426 352L438 357L420.105 385L412.192 396.91L420 405L420 406L376 442L376 443L383 453L360 465L365 477C360.001 478.367 341.597 482.457 339.697 487.419C338.474 490.61 341.115 495.882 342 499L321 504L324 516C312.714 518.78 306.918 518.567 311 532C295.822 532.01 301.504 542.446 302 554C312.548 553.963 310.024 548.569 310 540L323 539L325 551L334 550L330 528L319 530L319 526C323.901 525.613 336.564 520.515 340.437 523.694C345.614 527.943 342.638 543.013 349.302 545.222C353.711 546.684 355.94 542.656 355.312 538.995C353.681 529.493 349.293 520.592 348 511L332 514L332 510L366 500L372 516C362.184 518.28 361.476 532.575 370.51 537.879C376.488 541.389 377.711 533.756 376.41 530.004C375.699 527.954 374.881 525.978 374 524L387 520L392 531L400 527C395.784 516.859 393.435 504.779 381 512L371 488L351 496L350 492L382 478.752L394.79 473.421L411 495L411 496L402 501L412 520L420 517L414 506L414 505L426 498C429.065 506.082 432.45 508.093 440 504C435.147 492.464 429.733 484.358 418 491L403.576 467L396.907 460.252L373 473L372 469L411 445L438.753 480L450.289 492.825L458 490C449.807 468.847 425.808 451.731 413 433L390 448L389 444C398.075 440.509 405.844 432.556 413 426.166C431.419 409.718 452.987 385.345 460 361L464 362L453 383L464 389C461.331 393.034 453.008 401.985 453.882 406.907C454.564 410.75 460.678 411.774 460.083 416.04C458.572 426.869 449.093 427.168 462 436L462 437C452.626 443.604 451.178 449.076 461 456L461 457C453.516 462.339 454.992 465.991 461.001 471.999C463.386 474.384 467.066 479.308 470.937 477.248C478.2 473.384 469.263 468.438 468.966 464C468.732 460.491 473.153 456.702 475 454L476 454C480.834 460.715 486.552 463.467 491 455L473 442L466 449L465 448L478 430L501 444C507.428 432.948 485.707 420.68 476 417L468 429L467 429L465 427L465 426L479 406L514 425C519.581 412.32 499.295 406.335 490 400.576C486.94 398.68 481.089 393.287 477.21 394.446C473.235 395.634 469.892 403.601 468 407L467 407L465 405L465 404C472.552 397.028 479.165 383.841 482 374L509 385L505 396L525 405L528 396L517 392L522 379L535 384C538.002 372.627 527.191 369.755 517 368L514 377L478 362L469 381L467 381L480 344L543 362L545 353C521.723 348.183 497.718 334.084 474 333L468 354L455 349C449.513 365.113 438.704 387.488 425 398L424 397C438.448 368.691 457.563 345.948 462 313C482.86 318.139 507.519 323.557 529 324L527 335L549 339C550.412 327.541 543.025 333.913 539.198 326.686C537.574 323.62 539.586 318.26 540 315L553 317L554 308L532 305L531 316L455 303L442 349L438 348C445.562 329.564 451.945 309.128 452 289L555 293L555 285L444 280z"/>
<path style="fill:#ffffff; stroke:none;" d="M452 289C451.827 309.844 443.599 328.413 438 348L442 349L455 303L531 316L532 305L554 308L553 317L540 315C539.4 318.185 537.052 324.513 539.067 327.411C543.478 333.756 549.72 328.298 549 339L527 335L529 324L462 313C458.208 331.374 452.265 349.547 443.139 366C437.503 376.161 427.665 386.131 424 397L425 398C438.389 391.201 451.626 363.203 455 349L468 354L474 333L545 353L543 362L480 344C477.486 354.86 464.954 370.407 467 381L469 381L478 362L514 377L517 368C527.032 370.744 536.897 372.562 535 384L522 379L517 392L528 396L525 405L505 396L509 385L482 374L465 404L465 405L467 407L468 407C470.29 404.02 473.868 395.584 477.68 394.727C481.214 393.932 487.166 399.453 490 401.189C499.505 407.012 517.764 412.281 514 425L479 406L465 426L465 427L467 429L468 429L476 417C485.701 422.406 505.807 432.226 501 444L478 430L465 448L466 449L473 442L491 455C485.38 462.206 481.847 459.718 476 454L475 454C472.642 456.465 468.004 460.208 468.167 464C468.337 467.946 476.765 472.813 470.883 476.364C466.65 478.92 456.08 468.113 456.054 464.002C456.037 461.209 459.256 458.786 461 457L461 456C452.598 447.585 453.883 445.119 462 437L462 436L454.542 426.961L460.883 415.093L454.541 406.907L464 389L453 383L464 362L460 361C446.63 393.112 419.368 426.698 389 444L390 448L413 433L458 490L450.289 492.083L438.753 479L411 445L372 469L373 473L396.674 460.598L403.576 468L418 491C420.537 490.028 424.132 487.045 426.91 487.591C432.139 488.618 437.392 499.774 440 504C432.224 506.829 430.071 505.301 426 498L414 505L414 506L420 517L412 520L402 501L411 496L411 495L395.621 473.133L383 477.742L350 492L351 496L371 488L381 512C394.208 506.52 394.222 517.064 400 527L392 531L387 520L374 524L376.045 530.004C377.178 533.351 376.937 539.929 371.277 537.643C367.868 536.266 363.129 523.668 364.407 520.278C365.437 517.545 369.562 516.802 372 516L366 500L332 510L332 514L348 511C348.759 520.293 352.863 528.943 354.826 537.999C355.54 541.296 354.636 545.722 350.14 544.914C343.345 543.692 345.184 527.92 341.066 523.618C337.601 519.998 323.685 525.405 319 526L319 530L330 528L334 550L325 551L323 539L310 540C310.005 548.008 311.926 553.883 302 554C301.774 543.03 296.153 532.043 311 532C307.746 518.488 312.954 519.493 324 516L321 504L342 499L340.212 487.419L365 477L360 465L383 453L376 443L376 442C392.325 433.31 408.336 420.323 420 406L420 405L413.016 396.91L420.846 385L438 357L426 352L438 321L396 311C383.112 366.709 327.511 401 273 401L273 405L285 405L288 555L555 555L555 293L452 289z"/>
<path style="fill:#9fd777; stroke:none;" d="M0 296L1 305L14 304C14.0858 314.367 14.7513 318.071 3 319L4 328L25 325L24 314L28 314L32 336L7 342L9 351L43 342L39 327C46.5901 329.297 47.735 345.037 50 352L14 364L16 373L61 358L56 341C63.9991 343.421 69.8315 367.072 72 375L46 387C40.5749 373.808 32.3614 381.749 22 386C24.4868 396.308 30.19 392.136 38 390C41.0459 400.573 42.1036 401.097 32 407C35.8315 419.853 47.4548 409.618 55 405L50 395L77 382L86 400L56 418.947L45.2523 427.184L48 435L92 407C92.9721 408.974 95.6766 412.186 95.2454 414.486C94.7187 417.295 90.0491 419.762 88 421.4C81.3399 426.722 74.7417 432.131 68 437.35C61.4638 442.409 55.9772 444.868 61 453C73.7782 449.963 93.385 431.858 102 422L103 422L106.794 429.996L97 440.039L72 464L72 465L79.0147 469.654L91 459.285L122 430L122 429L94 394L98 393C105.986 409.882 122.488 428.739 138 439L138 440C127.823 447.49 117.693 461.297 111 472L110 472C101.028 459.423 85.0997 477.337 94 487L95 487C102.817 479.195 103.955 480.322 113 485L106 497C117.112 504.595 130.713 485.985 118 478L118 477C127.366 468.87 135.013 457.643 142.803 448C144.932 445.365 150.096 441.013 148.744 437.17C145.356 427.54 126.294 423.929 128 412L129 412C137.009 424.107 152.507 438.324 166 444C160.644 452.72 155.231 461.418 149.657 470C142.987 480.268 136.489 490.651 129.947 501C127.714 504.532 123.395 509.853 129.049 512.623C132.85 514.487 135.142 510.762 136.946 507.995C142.116 500.066 147.196 492.041 152.192 484C158.439 473.946 164.954 464.061 171.192 454C173.025 451.043 177.845 445.939 177.119 442.21C176.089 436.919 160.535 428.824 156 426L156 425L158 423L159 423C169.476 434.803 188.802 445.843 204 450L184 502L169 496L165 507L154 503L145 522L153 526L158 515C169.318 518.26 168.725 522.036 166 532C176.472 537.833 180.448 523.732 182 515L173 512L174 508L195 516C192.342 525.366 182.567 540.171 196 543L203.667 520L204.932 510.702L193 506L216 445L189 433L190 430C200.432 434.343 210.231 439.711 221 443.333C224.203 444.41 231.051 445.209 231.933 449.144C233.325 455.356 228.618 465.872 227.13 472C222.935 489.272 218.723 506.621 215 524C212.893 533.836 205.112 547.194 219 549C221.961 512.747 236.641 475.672 244 440L219 433L220 429L249 437L233 552C246.27 553.631 244.426 533.362 245.87 523C249.078 499.975 252.835 477.031 256 454C256.724 448.735 261.475 435.103 257.971 430.603C255.512 427.443 245.785 427.301 242 427L242 423L264 426C258.708 467.877 256 512.78 256 555L265 555L273 418L259 417L259 413L276 414L279 555L288 555L285 405L273 405L273 401C302.867 401 328.265 392.686 353 376L349 368C320.469 383.821 297.902 392 265 392L264 404L252 403L250 415L236 412L233 424L215 418L211 429C198.086 424.603 189.447 412.134 181 428L180 428L158 410L157 410C155.018 412.067 152.6 415.874 149.83 416.883C143.005 419.368 136.304 404.29 130.999 401.752C126.447 399.573 124.306 405.767 120.039 405.23C112.82 404.322 104.132 385.884 101 380L89 387L71.6667 347L65.4869 331.068L54 333L50 316L38 319L36 304L23 305L22 295L0 296z"/>
<path style="fill:#ffffff; stroke:none;" d="M0 300L0 555L256 555L264 426L242 423L242 427C245.995 427.516 255.629 427.64 257.958 431.318C261.097 436.275 256.532 449.43 255.729 455C252.558 477.01 249.02 498.969 246 521C244.574 531.399 246.23 552.889 233 552L249 437L220 429L219 433L244 440L226.576 514L219 549C205.633 546.358 213.236 532.852 215.424 523C219.354 505.306 223.484 487.585 227.873 470C229.201 464.683 233.996 453.56 232.223 448.303C231.071 444.889 223.978 444.012 221 442.997C210.424 439.394 200.642 433.066 190 430L189 433L216 445C207.884 462.355 194.675 486.93 193 506L204.788 511.419L203 521L196 543C183.145 539.222 193.003 525.651 195 516L174 508L173 512L182 515C179.495 523.763 176.689 536.231 166 532C169.767 522.287 169.777 517.099 158 515L153 526L145 522L154 503L165 507L169 496L184 502L204 450C187.577 443.628 172.754 433.915 159 423L158 423L156 425L156 426C160.389 429.798 175.112 436.758 176.462 442.21C177.298 445.585 172.846 450.333 171.192 453C164.954 463.061 158.439 472.946 152.192 483C147.194 491.045 142.081 499.041 136.946 506.999C135.095 509.868 132.084 514.76 128.278 511.369C123.812 507.39 132.667 497.579 135 494C145.386 478.067 158.464 461.466 166 444C152.076 435.406 140.022 423.965 129 412L128 412C123.464 423.958 146.917 428.128 148.231 438.09C148.719 441.792 143.311 446.385 141.197 449C133.578 458.426 125.638 467.589 118 477L118 478C119.865 479.635 123.792 481.961 124.245 484.615C125.829 493.9 112.602 500.135 106 497L113 485C104.882 478.844 101.409 477.909 95 487L94 487C87.1449 476.616 99.9206 462.159 110 472L111 472L138 440L138 439C122.769 424.971 109.605 410.2 98 393L94 394C100.785 406.187 110.546 420.864 122 429L122 430C110.324 438.225 100.712 449.838 90 459.285C83.207 465.277 80.1872 471.845 72 465L72 464L98 440.039L107.654 429.996L103 422L102 422C89.7854 431.846 75.6453 447.336 61 453C53.0219 433.139 105.736 426.519 92 407L48 435L46.0216 427.184L57 418.947L86 400L77 382L50 395L55 405C46.6974 408.578 37.2453 418.849 32 407C42.5261 402.616 42.0519 399.732 38 390C30.1192 391.357 25.3849 395.646 22 386C33.2514 382.784 38.9741 374.727 46 387L72 375C70.7017 367.46 63.7901 342.296 56 341L61 358L16 373L14 364L50 352C48.4469 345.287 46.5489 328.256 39 327L43 342L9 351L7 342L32 336L28 314L24 314L25 325L4 328L3 319C15.3059 318.472 14.2195 314.635 14 304L1 305L0 300z"/>
<path style="fill:#71c7b9; stroke:none;" d="M376 304C370.031 317.467 365.502 330.547 355.7 342C351.008 347.481 337.32 355.464 335.447 362.171C334.434 365.796 339.076 370.313 341 373L349 368L349 367L347 363C361.562 356.209 372.256 337.056 378.691 323C382.426 314.843 387.394 306.399 376 304z"/>
<path style="fill:#67bf79; stroke:none;" d="M347 379L348 380L347 379z"/>
<path style="fill:#ffffff; stroke:none;" d="M259 413L259 417L273 418L265 555L279 555L276 414L259 413z"/>
</svg>
